<svg width="24" height="24" viewBox="0 0 24 24" fill="none" xmlns="http://www.w3.org/2000/svg">
<path d="M13.2656 6.49157C13.2656 5.09583 12.1301 3.96033 10.7344 3.96033C9.33863 3.96033 8.20312 5.09583 8.20312 6.49157C8.20312 7.88732 9.33863 9.02282 10.7344 9.02282C12.1301 9.02282 13.2656 7.88732 13.2656 6.49157ZM9.14062 6.49157C9.14062 5.61276 9.85556 4.89783 10.7344 4.89783C11.6132 4.89783 12.3281 5.61276 12.3281 6.49157C12.3281 7.37039 11.6132 8.08532 10.7344 8.08532C9.85556 8.08532 9.14062 7.37039 9.14062 6.49157Z" fill="white"/>
<path d="M6.6447 12.5527C7.24699 12.2458 7.69371 11.7227 7.90263 11.0799C8.11151 10.437 8.05755 9.7512 7.75066 9.14895C7.44377 8.54665 6.9207 8.09994 6.27785 7.89101C5.63491 7.68209 4.94918 7.73609 4.34693 8.04298C3.74463 8.34987 3.29791 8.87295 3.08899 9.51579C2.88012 10.1587 2.93407 10.8445 3.24096 11.4467C3.54785 12.049 4.07093 12.4957 4.71377 12.7046C4.97121 12.7883 5.23545 12.8298 5.49846 12.8298C5.89235 12.8298 6.28352 12.7367 6.6447 12.5527ZM5.00346 11.813C4.59874 11.6816 4.26945 11.4003 4.07623 11.0211C3.88301 10.642 3.84902 10.2102 3.98056 9.80553C4.11204 9.40081 4.39329 9.07151 4.77246 8.87829C4.99985 8.76242 5.24609 8.70383 5.4941 8.70383C5.65966 8.70383 5.82607 8.72998 5.98812 8.78262C6.39284 8.91411 6.72213 9.19536 6.91535 9.57453C7.10857 9.9537 7.14256 10.3854 7.01102 10.7901C6.87954 11.1949 6.59829 11.5241 6.21912 11.7174C5.8399 11.9105 5.40818 11.9445 5.00346 11.813Z" fill="white"/>
<path d="M6.00924 18.5042C6.45756 18.8299 6.97787 18.9867 7.49363 18.9867C8.27701 18.9867 9.05007 18.625 9.5447 17.9442C9.9421 17.3972 10.1027 16.7283 9.9969 16.0605C9.8911 15.3927 9.53166 14.8061 8.98468 14.4088C8.4377 14.0114 7.76884 13.8507 7.10096 13.9566C6.43318 14.0623 5.84659 14.4218 5.44923 14.9687C4.62896 16.0978 4.88016 17.6838 6.00924 18.5042ZM6.20776 15.5198C6.45793 15.1754 6.82726 14.9491 7.24768 14.8825C7.3321 14.8691 7.41652 14.8625 7.50038 14.8625C7.83413 14.8625 8.15851 14.9673 8.43371 15.1673C9.14462 15.6838 9.30277 16.6823 8.78626 17.3932C8.26974 18.1041 7.27121 18.2623 6.56031 17.7458C5.8494 17.2292 5.69124 16.2307 6.20776 15.5198Z" fill="white"/>
<path d="M13.9754 18.9866C14.4912 18.9866 15.0117 18.8298 15.4599 18.5042C16.589 17.6838 16.8402 16.0978 16.0198 14.9687C15.6224 14.4218 15.0358 14.0623 14.3681 13.9565C13.7003 13.8508 13.0314 14.0114 12.4844 14.4087C11.9374 14.8061 11.578 15.3927 11.4722 16.0605C11.3664 16.7282 11.527 17.3972 11.9244 17.9442C12.4191 18.6251 13.192 18.9866 13.9754 18.9866ZM13.0354 15.1672C13.3798 14.917 13.8008 14.8158 14.2214 14.8825C14.6418 14.9491 15.0111 15.1754 15.2613 15.5198C15.7778 16.2307 15.6197 17.2292 14.9088 17.7457C14.1979 18.2622 13.1993 18.1041 12.6828 17.3932C12.1663 16.6823 12.3245 15.6837 13.0354 15.1672Z" fill="white"/>
<path d="M15.1913 7.89094C14.5484 8.09986 14.0253 8.54658 13.7185 9.14888C13.4116 9.75117 13.3577 10.4369 13.5665 11.0798C13.7755 11.7227 14.2222 12.2458 14.8245 12.5526C15.1856 12.7366 15.5768 12.8297 15.9707 12.8297C16.2337 12.8297 16.4981 12.7882 16.7554 12.7046C17.3983 12.4957 17.9214 12.049 18.2282 11.4467C18.5351 10.8444 18.5891 10.1587 18.3802 9.51577C18.1713 8.87288 17.7245 8.3498 17.1222 8.04295C16.52 7.73606 15.8342 7.68216 15.1913 7.89094ZM16.6967 8.87827C17.0758 9.07149 17.3571 9.40074 17.4886 9.8055C17.6201 10.2102 17.5861 10.6419 17.3929 11.0211C17.1997 11.4003 16.8704 11.6815 16.4657 11.813C16.0609 11.9445 15.6292 11.9106 15.2501 11.7173C14.8709 11.5241 14.5896 11.1949 14.4581 10.7901C14.3266 10.3854 14.3606 9.95367 14.5538 9.5745C14.747 9.19533 15.0763 8.91408 15.4811 8.7826C15.6431 8.72991 15.8095 8.7038 15.9751 8.7038C16.223 8.7038 16.4693 8.76239 16.6967 8.87827Z" fill="white"/>
<path d="M12.3418 12C12.3418 11.1137 11.6208 10.3926 10.7344 10.3926C9.84803 10.3926 9.12695 11.1137 9.12695 12C9.12695 12.8864 9.84803 13.6075 10.7344 13.6075C11.6208 13.6075 12.3418 12.8864 12.3418 12ZM10.0645 12C10.0645 11.6306 10.365 11.3301 10.7344 11.3301C11.1038 11.3301 11.4043 11.6306 11.4043 12C11.4043 12.3694 11.1038 12.67 10.7344 12.67C10.365 12.67 10.0645 12.3694 10.0645 12Z" fill="white"/>
<path d="M23.8627 20.7073C23.3326 20.1772 22.6279 19.8853 21.8783 19.8853C21.1287 19.8853 20.424 20.1772 19.8939 20.7073C19.1913 21.4099 18.2571 21.7969 17.2634 21.7969H15.1344C16.3078 21.2693 17.3877 20.5273 18.3247 19.5903C20.3522 17.5629 21.4688 14.8673 21.4688 12C21.4688 9.90281 20.8638 7.87102 19.7192 6.12427C19.5774 5.9077 19.2868 5.84719 19.0702 5.98908C18.8537 6.13097 18.7932 6.42155 18.9351 6.63806C19.9793 8.23172 20.5312 10.0859 20.5312 12C20.5312 17.402 16.1364 21.7969 10.7344 21.7969C5.33236 21.7969 0.9375 17.402 0.9375 12C0.9375 6.59798 5.33236 2.20312 10.7344 2.20312C12.6517 2.20312 14.5086 2.75681 16.104 3.80438C16.3204 3.9465 16.611 3.88627 16.7531 3.6698C16.8952 3.45338 16.835 3.1628 16.6185 3.02067C14.8698 1.87252 12.8351 1.26562 10.7344 1.26562C7.86713 1.26562 5.17148 2.38219 3.14405 4.40967C1.11661 6.43716 0 9.13275 0 12C0 14.8673 1.11656 17.5629 3.14405 19.5904C5.17148 21.6178 7.86713 22.7344 10.7344 22.7344H17.2634C18.5075 22.7344 19.6771 22.2499 20.5568 21.3702C20.9098 21.0172 21.3791 20.8228 21.8783 20.8228C22.3775 20.8228 22.8468 21.0172 23.1998 21.3702C23.3828 21.5532 23.6796 21.5532 23.8627 21.3702C24.0458 21.1871 24.0458 20.8903 23.8627 20.7073Z" fill="white"/>
<path d="M17.9971 5.21291C18.1204 5.21291 18.2413 5.16322 18.3285 5.07604C18.4157 4.98838 18.4658 4.86791 18.4658 4.74463C18.4658 4.62088 18.4157 4.50041 18.3285 4.41275C18.2413 4.32557 18.1204 4.27588 17.9971 4.27588C17.8738 4.27588 17.7529 4.32557 17.6657 4.41275C17.5785 4.50041 17.5283 4.62088 17.5283 4.74463C17.5283 4.86791 17.5785 4.98885 17.6657 5.07604C17.7529 5.16322 17.8738 5.21291 17.9971 5.21291Z" fill="white"/>
</svg>
